{
  "accessors": [
    {
      "bufferView": 2,
      "componentType": 5126,
      "count": 1536,
      "max": [
        29.026927947998047,
        83.96793365478516,
        21.665119171142578
      ],
      "min": [
        -32.24962615966797,
        42.00433349609375,
        -22.055030822753906
      ],
      "type": "VEC3"
    },
    {
      "bufferView": 2,
      "byteOffset": 18432,
      "componentType": 5126,
      "count": 1536,
      "max": [
        0.9986016154289246,
        0.8446658849716187,
        0.9955663084983826
      ],
      "min": [
        -0.99958336353302,
        -0.852008581161499,
        -0.999208927154541
      ],
      "type": "VEC3"
    },
    {
      "bufferView": 1,
      "componentType": 5126,
      "count": 1536,
      "max": [
        1.0,
        1.0
      ],
      "min": [
        0.0,
        0.0
      ],
      "type": "VEC2"
    },
    {
      "bufferView": 1,
      "byteOffset": 12288,
      "componentType": 5126,
      "count": 1536,
      "max": [
        1.0,
        1.0
      ],
      "min": [
        0.0,
        0.0
      ],
      "type": "VEC2"
    },
    {
      "bufferView": 1,
      "byteOffset": 24576,
      "componentType": 5126,
      "count": 1536,
      "max": [
        1.0,
        0.9779319167137146
      ],
      "min": [
        1.0,
        0.11183790117502213
      ],
      "type": "VEC2"
    },
    {
      "bufferView": 1,
      "byteOffset": 36864,
      "componentType": 5126,
      "count": 1536,
      "max": [
        1.0,
        1.0
      ],
      "min": [
        0.0,
        0.0
      ],
      "type": "VEC2"
    },
    {
      "bufferView": 0,
      "componentType": 5125,
      "count": 2304,
      "type": "SCALAR"
    },
    {
      "bufferView": 2,
      "byteOffset": 36864,
      "componentType": 5126,
      "count": 5674,
      "max": [
        26.555866241455078,
        77.03237915039063,
        19.863525390625
      ],
      "min": [
        -27.4469051361084,
        -5.371045112609863,
        -17.8608341217041
      ],
      "type": "VEC3"
    },
    {
      "bufferView": 2,
      "byteOffset": 104952,
      "componentType": 5126,
      "count": 5674,
      "max": [
        0.9997548460960388,
        0.9999926686286926,
        0.9995226263999939
      ],
      "min": [
        -0.9994986653327942,
        -0.9894860982894897,
        -0.9998891353607178
      ],
      "type": "VEC3"
    },
    {
      "bufferView": 3,
      "componentType": 5126,
      "count": 5674,
      "max": [
        0.9997770190238953,
        0.9983944296836853,
        0.9999390840530396,
        1.0
      ],
      "min": [
        -0.9998159408569336,
        -0.9973032474517822,
        -0.9998828768730164,
        1.0
      ],
      "type": "VEC4"
    },
    {
      "bufferView": 1,
      "byteOffset": 49152,
      "componentType": 5126,
      "count": 5674,
      "max": [
        7.408242225646973,
        79.84990692138672
      ],
      "min": [
        -0.9509174227714539,
        -0.9997940063476563
      ],
      "type": "VEC2"
    },
    {
      "bufferView": 1,
      "byteOffset": 94544,
      "componentType": 5126,
      "count": 5674,
      "max": [
        7.408242225646973,
        79.84990692138672
      ],
      "min": [
        -0.9509174227714539,
        -0.9997940063476563
      ],
      "type": "VEC2"
    },
    {
      "bufferView": 1,
      "byteOffset": 139936,
      "componentType": 5126,
      "count": 5674,
      "max": [
        1.0,
        1.0
      ],
      "min": [
        1.0,
        0.25
      ],
      "type": "VEC2"
    },
    {
      "bufferView": 1,
      "byteOffset": 185328,
      "componentType": 5126,
      "count": 5674,
      "max": [
        7.408242225646973,
        79.84990692138672
      ],
      "min": [
        -0.9509174227714539,
        -0.9997940063476563
      ],
      "type": "VEC2"
    },
    {
      "bufferView": 0,
      "byteOffset": 9216,
      "componentType": 5125,
      "count": 25164,
      "type": "SCALAR"
    }
  ],
  "asset": {
    "extras": {
      "author": "SCADL & Co (https://sketchfab.com/scadl)",
      "license": "CC-BY-4.0 (http://creativecommons.org/licenses/by/4.0/)",
      "source": "https://sketchfab.com/3d-models/mountain-pine-7432e1741b6941298cd739746b99571b",
      "title": "Mountain pine"
    },
    "generator": "Sketchfab-10.99.0",
    "version": "2.0"
  },
  "bufferViews": [
    {
      "buffer": 0,
      "byteLength": 109872,
      "name": "floatBufferViews",
      "target": 34963
    },
    {
      "buffer": 0,
      "byteLength": 230720,
      "byteOffset": 109872,
      "byteStride": 8,
      "name": "floatBufferViews",
      "target": 34962
    },
    {
      "buffer": 0,
      "byteLength": 173040,
      "byteOffset": 340592,
      "byteStride": 12,
      "name": "floatBufferViews",
      "target": 34962
    },
    {
      "buffer": 0,
      "byteLength": 90784,
      "byteOffset": 513632,
      "byteStride": 16,
      "name": "floatBufferViews",
      "target": 34962
    }
  ],
  "buffers": [
    {
      "byteLength": 604416,
      "uri": "scene.bin"
    }
  ],
  "images": [
    {
      "uri": "textures/igly_Mat_baseColor.png"
    },
    {
      "uri": "textures/kora_sosni_Mat_baseColor.png"
    },
    {
      "uri": "textures/kora_sosni_Mat_normal.png"
    }
  ],
  "materials": [
    {
      "alphaMode": "BLEND",
      "doubleSided": true,
      "name": "igly_Mat",
      "pbrMetallicRoughness": {
        "baseColorTexture": {
          "index": 0
        },
        "metallicFactor": 0.0,
        "roughnessFactor": 0.9577051494623774
      }
    },
    {
      "doubleSided": true,
      "name": "kora_sosni_Mat",
      "normalTexture": {
        "index": 2
      },
      "pbrMetallicRoughness": {
        "baseColorTexture": {
          "index": 1
        },
        "metallicFactor": 0.0,
        "roughnessFactor": 0.9577051494623774
      }
    }
  ],
  "meshes": [
    {
      "name": "pine_igly_Mat_0",
      "primitives": [
        {
          "attributes": {
            "NORMAL": 1,
            "POSITION": 0,
            "TEXCOORD_0": 2,
            "TEXCOORD_1": 3,
            "TEXCOORD_2": 4,
            "TEXCOORD_3": 5
          },
          "indices": 6,
          "material": 0,
          "mode": 4
        }
      ]
    },
    {
      "name": "pine_kora_sosni_Mat_0",
      "primitives": [
        {
          "attributes": {
            "NORMAL": 8,
            "POSITION": 7,
            "TANGENT": 9,
            "TEXCOORD_0": 10,
            "TEXCOORD_1": 11,
            "TEXCOORD_2": 12,
            "TEXCOORD_3": 13
          },
          "indices": 14,
          "material": 1,
          "mode": 4
        }
      ]
    }
  ],
  "nodes": [
    {
      "children": [
        1
      ],
      "matrix": [
        1.0,
        0.0,
        0.0,
        0.0,
        0.0,
        2.220446049250313e-16,
        -1.0,
        0.0,
        0.0,
        1.0,
        2.220446049250313e-16,
        0.0,
        0.0,
        0.0,
        0.0,
        1.0
      ],
      "name": "Sketchfab_model"
    },
    {
      "children": [
        2
      ],
      "matrix": [
        1.0,
        0.0,
        0.0,
        0.0,
        0.0,
        0.0,
        1.0,
        0.0,
        0.0,
        -1.0,
        0.0,
        0.0,
        0.0,
        0.0,
        0.0,
        1.0
      ],
      "name": "084047a63f2d49f4b0e4d57825dac79c.fbx"
    },
    {
      "children": [
        3
      ],
      "name": "RootNode"
    },
    {
      "children": [
        4,
        5
      ],
      "name": "pine"
    },
    {
      "mesh": 0,
      "name": "pine_igly_Mat_0"
    },
    {
      "mesh": 1,
      "name": "pine_kora_sosni_Mat_0"
    }
  ],
  "samplers": [
    {
      "magFilter": 9729,
      "minFilter": 9987,
      "wrapS": 10497,
      "wrapT": 10497
    }
  ],
  "scene": 0,
  "scenes": [
    {
      "name": "Sketchfab_Scene",
      "nodes": [
        0
      ]
    }
  ],
  "textures": [
    {
      "sampler": 0,
      "source": 0
    },
    {
      "sampler": 0,
      "source": 1
    },
    {
      "sampler": 0,
      "source": 2
    }
  ]
}
